<svg xmlns="http://www.w3.org/2000/svg" xmlns:xlink="http://www.w3.org/1999/xlink" viewBox="0 0 20.81 32.46"><defs><style>.cls-1{fill:none;}.cls-2{clip-path:url(#clip-path);}.cls-3{fill:#fff;}.cls-4{clip-path:url(#clip-path-2);}.cls-5{fill:#8d35e2;}</style><clipPath id="clip-path" transform="translate(0.01 -0.04)"><rect class="cls-1" x="2.09" width="18.8" height="33"/></clipPath><clipPath id="clip-path-2" transform="translate(0.01 -0.04)"><rect class="cls-1" width="19" height="33"/></clipPath></defs><g id="Layer_2" data-name="Layer 2"><g id="Layer_1-2" data-name="Layer 1"><g id="Layer_2-2" data-name="Layer 2"><g id="Layer_1-2-2" data-name="Layer 1-2"><g id="Layer_2-2-2" data-name="Layer 2-2"><g id="Layer_1-2-2-2" data-name="Layer 1-2-2"><g class="cls-2"><path class="cls-3" d="M13.42.06h5.19c1,0,1.39.6.95,1.49q-2.7,5.49-5.43,11a1.14,1.14,0,0,0-.18.65.76.76,0,0,0,.84.67h4.94a1,1,0,0,1,1,.55,1,1,0,0,1-.28,1.13L5.48,32c-.12.13-.23.26-.35.37a.26.26,0,0,1-.36.09h0a.28.28,0,0,1-.17-.36h0a1.52,1.52,0,0,1,.12-.36Q6.82,26.6,9,21.49c.35-.84.06-1.29-.86-1.29H3.25c-1,0-1.43-.61-1-1.53L8.38,6.24a1.59,1.59,0,0,1,1.58-1h3.3c.18,0,.35,0,.42-.24s-.1-.31-.24-.41l-3-2.06L8,.9C7.78.76,7.43.67,7.56.3S8,.06,8.27.06Z" transform="translate(0.01 -0.04)"/></g><g class="cls-4"><path class="cls-5" d="M11.33.06h5.19c1,0,1.39.6.95,1.49Q14.77,7,12,12.55a1.26,1.26,0,0,0-.19.65.76.76,0,0,0,.84.67h5a1,1,0,0,1,1,.55,1,1,0,0,1-.28,1.13L3.39,32c-.11.13-.23.25-.35.37a.26.26,0,0,1-.36.09h0a.28.28,0,0,1-.17-.36h0a1.08,1.08,0,0,1,.11-.36q2.14-5.1,4.27-10.2c.36-.84.07-1.29-.85-1.29H1.16c-1,0-1.43-.61-1-1.53q3-6.21,6.09-12.43a1.63,1.63,0,0,1,1.6-1h3.31A.39.39,0,0,0,11.55,5c.07-.22-.1-.31-.24-.41l-3-2.06C7.5,2,6.69,1.45,5.9.9,5.69.76,5.34.67,5.47.3s.45-.24.71-.24Z" transform="translate(0.01 -0.04)"/></g></g></g></g></g></g></g></svg>