<svg xmlns="http://www.w3.org/2000/svg" xmlns:xlink="http://www.w3.org/1999/xlink" viewBox="0 0 236.48 32.42"><defs><style>.cls-1{fill:none;}.cls-2{clip-path:url(#clip-path);}.cls-3{clip-path:url(#clip-path-2);}.cls-4{fill:#8d35e2;}</style><clipPath id="clip-path" transform="translate(0 -0.05)"><rect class="cls-1" x="2.09" width="18.8" height="33"/></clipPath><clipPath id="clip-path-2" transform="translate(0 -0.05)"><rect class="cls-1" width="19" height="33"/></clipPath></defs><g id="Layer_2" data-name="Layer 2"><g id="Layer_1-2" data-name="Layer 1"><g class="cls-2"><path d="M13.42.06h5.19c1,0,1.39.6.95,1.49-1.8,3.66-3.61,7.33-5.43,11a1.16,1.16,0,0,0-.18.65.76.76,0,0,0,.84.67h4.94a1,1,0,0,1,1,.55,1,1,0,0,1-.28,1.13Q13,23.75,5.48,32c-.12.13-.23.26-.35.37a.26.26,0,0,1-.39.07.28.28,0,0,1-.17-.36,1.52,1.52,0,0,1,.12-.36Q6.82,26.59,9,21.49c.35-.84.06-1.29-.86-1.29H3.25c-1,0-1.43-.61-1-1.53L8.38,6.24a1.59,1.59,0,0,1,1.58-1c1,0,2,0,3,0h.3c.18,0,.35,0,.42-.24s-.1-.31-.24-.41l-3-2.06L8,.9C7.78.76,7.43.67,7.56.3S8,.06,8.27.06Z" transform="translate(0 -0.05)"/></g><path d="M41.44,26.77a12,12,0,0,1-4.17-.71,10.28,10.28,0,0,1-3.35-2,9.14,9.14,0,0,1-2.25-3.19,10.53,10.53,0,0,1-.79-4.16V1.54h4.5V16.35a7,7,0,0,0,.7,3.17,5.54,5.54,0,0,0,2.05,2.27,6.14,6.14,0,0,0,3.31.84,6,6,0,0,0,3.23-.84,5.39,5.39,0,0,0,2.06-2.25,7,7,0,0,0,.73-3.16V1.54H52V16.69a10.52,10.52,0,0,1-.77,4.06,9.31,9.31,0,0,1-2.15,3.19A9.83,9.83,0,0,1,45.71,26,12,12,0,0,1,41.44,26.77Z" transform="translate(0 -0.05)"/><path d="M61.11,26.23H56.59V1.54H67a9.05,9.05,0,0,1,3.42.63A7.9,7.9,0,0,1,73.15,3.9a7.76,7.76,0,0,1,1.77,2.64,8.42,8.42,0,0,1,.65,3.31,9.15,9.15,0,0,1-.63,3.46A7.73,7.73,0,0,1,73.17,16a7.88,7.88,0,0,1-2.69,1.75,9.23,9.23,0,0,1-3.41.6h-6Zm0-20.67v8.75h5.75A4,4,0,0,0,69,13.73a4.14,4.14,0,0,0,1.5-1.58,4.64,4.64,0,0,0,.57-2.3,4.12,4.12,0,0,0-.57-2.1A4.42,4.42,0,0,0,69,6.17a4,4,0,0,0-2.14-.61Z" transform="translate(0 -0.05)"/><path d="M82.77,26.23H78.25V1.54h4.52Z" transform="translate(0 -0.05)"/><path d="M96.8,26.23H93.57V4.42H85.78V1.54h18.83V4.42H96.8Z" transform="translate(0 -0.05)"/><path d="M110.86,26.23h-3.15V7.71h3v4.14a6.53,6.53,0,0,1,2.17-3,5.63,5.63,0,0,1,3.48-1.1h1.79v2.75h-1.62a5.3,5.3,0,0,0-2.92.83,5.51,5.51,0,0,0-2,2.42,8.9,8.9,0,0,0-.73,3.81Z" transform="translate(0 -0.05)"/><path d="M128.38,26.75a8.32,8.32,0,0,1-3.54-.75A8.84,8.84,0,0,1,122,23.92a10.14,10.14,0,0,1-1.9-3.13,10.75,10.75,0,0,1-.67-3.83,10.53,10.53,0,0,1,.67-3.79,9.92,9.92,0,0,1,1.9-3.11A8.75,8.75,0,0,1,124.84,8a8.26,8.26,0,0,1,3.52-.75,8.7,8.7,0,0,1,3.1.54A7.73,7.73,0,0,1,134,9.31a7.16,7.16,0,0,1,1.72,2.38v-4h3V26.23h-3V22.29A7.37,7.37,0,0,1,134,24.67a7.85,7.85,0,0,1-2.53,1.54A8.67,8.67,0,0,1,128.38,26.75Zm.69-2.92a6.21,6.21,0,0,0,2.54-.52,6.28,6.28,0,0,0,2.08-1.46,6.63,6.63,0,0,0,1.4-2.18,7.33,7.33,0,0,0,.5-2.71,7.24,7.24,0,0,0-.5-2.67,6.67,6.67,0,0,0-1.42-2.19,6.55,6.55,0,0,0-2.08-1.45,6.05,6.05,0,0,0-2.5-.52,6.36,6.36,0,0,0-4.65,1.93A6.78,6.78,0,0,0,123,14.23a7.06,7.06,0,0,0-.5,2.73,7.32,7.32,0,0,0,.52,2.83A6.73,6.73,0,0,0,124.46,22a6.41,6.41,0,0,0,4.61,1.87Z" transform="translate(0 -0.05)"/><path d="M147,26.23h-3.13V7.71h3v3.58a6.32,6.32,0,0,1,1.52-2.12,7.31,7.31,0,0,1,2.38-1.46,8,8,0,0,1,2.91-.52,6.89,6.89,0,0,1,5.59,2.27c1.27,1.51,1.91,3.76,1.91,6.73v10h-3.12v-10c0-2.14-.46-3.69-1.38-4.67a4.93,4.93,0,0,0-3.79-1.48,5.77,5.77,0,0,0-4.12,1.71,6.09,6.09,0,0,0-1.29,2A6.8,6.8,0,0,0,147,16.5Z" transform="translate(0 -0.05)"/><path d="M179.83,26.23h-15.4v-2l10.73-13.83H165V7.71h14.44v2L168.72,23.56h11.11Z" transform="translate(0 -0.05)"/><path d="M190.3,26.75a8.32,8.32,0,0,1-3.54-.75,8.88,8.88,0,0,1-2.86-2.08A10.11,10.11,0,0,1,182,20.79a10.75,10.75,0,0,1-.67-3.83,10.53,10.53,0,0,1,.67-3.79,9.9,9.9,0,0,1,1.89-3.11A8.79,8.79,0,0,1,186.76,8a8.26,8.26,0,0,1,3.52-.75,8.74,8.74,0,0,1,3.1.54,7.58,7.58,0,0,1,2.52,1.56,7.19,7.19,0,0,1,1.73,2.38v-4h3V26.23h-3V22.29a7.4,7.4,0,0,1-1.73,2.38,7.7,7.7,0,0,1-2.52,1.54A8.71,8.71,0,0,1,190.3,26.75Zm.69-2.92a6.21,6.21,0,0,0,2.54-.52,6.28,6.28,0,0,0,2.08-1.46,7,7,0,0,0,1.4-2.18,7.33,7.33,0,0,0,.5-2.71,7.24,7.24,0,0,0-.5-2.67,6.83,6.83,0,0,0-1.42-2.19,6.55,6.55,0,0,0-2.08-1.45,6.05,6.05,0,0,0-2.5-.52,6.47,6.47,0,0,0-2.57.5,6.4,6.4,0,0,0-2.08,1.43,7,7,0,0,0-1.42,2.17,7.25,7.25,0,0,0-.5,2.73,7.51,7.51,0,0,0,.52,2.83A6.75,6.75,0,0,0,186.38,22a6.38,6.38,0,0,0,2.08,1.39A6.55,6.55,0,0,0,191,23.83Z" transform="translate(0 -0.05)"/><path d="M213.69,26.75a9.37,9.37,0,0,1-3.75-.75,9.56,9.56,0,0,1-3-2.1,10.4,10.4,0,0,1-2-3.13,10.2,10.2,0,0,1-.7-3.81,9.77,9.77,0,0,1,2.7-6.9,9.53,9.53,0,0,1,10.75-2,9,9,0,0,1,3.07,2.34,8.9,8.9,0,0,1,1.81,3.39h-3.21a5.55,5.55,0,0,0-2.25-2.71,6.35,6.35,0,0,0-3.39-.93,6.23,6.23,0,0,0-2.38.47,6.34,6.34,0,0,0-2,1.36,6.54,6.54,0,0,0-1.42,2.17,7.32,7.32,0,0,0-.52,2.83,7.42,7.42,0,0,0,.52,2.87,6.54,6.54,0,0,0,3.48,3.55,6.38,6.38,0,0,0,2.36.45,6.19,6.19,0,0,0,3.39-.95A5.67,5.67,0,0,0,219.36,20h3.19a9.14,9.14,0,0,1-1.77,3.52,8.91,8.91,0,0,1-3.09,2.36A9.37,9.37,0,0,1,213.69,26.75Z" transform="translate(0 -0.05)"/><path d="M236.48,26.23h-3.42A8.25,8.25,0,0,1,231,26a4.65,4.65,0,0,1-1.9-1,5.18,5.18,0,0,1-1.35-2.08,10.38,10.38,0,0,1-.5-3.5V10.46h-4.1V7.71h4.1V2.21l3.13,0V7.71h6.12v2.75h-6.12v9.06a6.4,6.4,0,0,0,.27,2.08,2.84,2.84,0,0,0,.77,1.25,2.74,2.74,0,0,0,1.08.59,4.83,4.83,0,0,0,1.21.14h2.79Z" transform="translate(0 -0.05)"/><g class="cls-3"><path class="cls-4" d="M11.33.06h5.19c1,0,1.39.6.95,1.49-1.8,3.66-3.61,7.33-5.43,11a1.26,1.26,0,0,0-.19.65.77.77,0,0,0,.85.67h4.94a1,1,0,0,1,1,.55,1,1,0,0,1-.28,1.13L3.39,32a4.12,4.12,0,0,1-.35.37.26.26,0,0,1-.39.07.28.28,0,0,1-.17-.36c0-.12.07-.25.11-.36q2.14-5.1,4.27-10.2c.36-.84.07-1.29-.85-1.29H1.16c-1,0-1.43-.61-1-1.53q3-6.21,6.09-12.43a1.62,1.62,0,0,1,1.6-1c1,0,2,0,3,0h.31A.4.4,0,0,0,11.55,5c.07-.22-.1-.31-.24-.41l-3-2.06C7.5,2,6.69,1.45,5.9.9,5.69.76,5.34.67,5.47.3s.45-.24.71-.24Z" transform="translate(0 -0.05)"/></g></g></g></svg>